<svg xmlns="http://www.w3.org/2000/svg" viewBox="0 0 512 512"><g id="Outline"><circle cx="228" cy="100" r="12"/><path d="M482.3,184.833A52.421,52.421,0,0,0,450.571,168c-.806-.274-74.571,0-74.571,0a8,8,0,0,0-8,8v56H240a8,8,0,0,0-7.92,6.871l-1.4,9.816A89.992,89.992,0,0,1,189.727,312H160v16h23.062l-6.222,56H48a8,8,0,0,0-8,8v96a8,8,0,0,0,8,8H208a8,8,0,0,0,7.354-11.151L192,430.357V392.444l7.524-67.718a107.5,107.5,0,0,0,30.36-30.12C244,273.5,246.94,248,246.94,248H400.185A52,52,0,1,0,482.3,184.833ZM176,424H152V400h24Zm-56,0V400h16v24Zm-16-24v24H88V400Zm-32,0v24H56V400ZM56,480V440H178.725l17.142,40ZM444,256a35.873,35.873,0,0,1-32.064-19.642A8,8,0,0,0,404.812,232H384V184s62.936.126,63.281.157A36,36,0,0,1,444,256Z"/><path d="M88,368a8,8,0,0,0,6.577-3.446l71.682-103.541s20.391-21.445,21.158-21.43A51.374,51.374,0,0,0,240,188c0-1.347-.068-2.678-.169-4H352V168H251.707A31.927,31.927,0,0,0,256,152V136h24a8,8,0,0,0,7.59-10.529L270.041,72.813A71.154,71.154,0,0,0,263.385,58.4,23.988,23.988,0,0,0,248,16H176a48.054,48.054,0,0,0-48,48v68.686l-25.657,25.657,11.314,11.314L173.6,110.394a8,8,0,0,0,.176-11.255l-4.432-4.62a9.108,9.108,0,0,1,.132-12.677,9.057,9.057,0,0,1,12.874.067l11.606,11.847a8,8,0,0,0,13.459-3.592L214.191,64h33.754a55.052,55.052,0,0,1,6.915,13.869L268.9,120H248a8,8,0,0,0-8,8v24a15.983,15.983,0,0,1-5.752,12.273,51.981,51.981,0,0,0-91.291-2.258L32,283.433V224.79c0-22.124,17.636-40.418,39.307-40.781a41.073,41.073,0,0,1,7.69.6,39.917,39.917,0,0,1,17.566,7.815l9.838-12.618a55.961,55.961,0,0,0-24.646-10.957,56.9,56.9,0,0,0-10.709-.838C40.693,168.519,16,193.99,16,224.79V344a24.027,24.027,0,0,0,24,24ZM208,48a8,8,0,0,0-7.744,5.993l-4.781,18.453-1.7-1.735A24.885,24.885,0,0,0,176,63.19h-.132a24.876,24.876,0,0,0-17.714,7.339,25.207,25.207,0,0,0-1.382,33.939L144,116.975V64a32.036,32.036,0,0,1,32-32h72a8,8,0,0,1,0,16ZM156.479,170.606a36.048,36.048,0,1,1,26.966,53.1,8,8,0,0,0-6.885,2.517L159.814,244.4l-36.591-36.853S156.18,171.147,156.479,170.606ZM32,344V307.112l80.251-87.547,37.371,37.371L83.809,352H40A8.009,8.009,0,0,1,32,344Z"/></g></svg>