<svg height="512" viewBox="0 0 128 128" width="512" xmlns="http://www.w3.org/2000/svg"><g><path d="m110 91.423h-92a1.75 1.75 0 0 0 -1.75 1.75v6.219a1.751 1.751 0 0 0 1.75 1.75h92a1.75 1.75 0 0 0 1.75-1.75v-6.219a1.749 1.749 0 0 0 -1.75-1.75zm-1.75 3.5v2.719h-88.5v-2.719z"/><path d="m110 108.25h-92a1.75 1.75 0 0 0 0 3.5h92a1.75 1.75 0 0 0 0-3.5z"/><path d="m36.8 85.771h.107a8.544 8.544 0 0 0 6.124-2.671l24.732-25.958.43.431a1.749 1.749 0 0 0 2.475 0l3.36-3.36a6.88 6.88 0 0 0 2.6.908 3.431 3.431 0 0 1 1.983.971l.779.778a3.925 3.925 0 0 0 .947 4.01l4.471 4.471a1.75 1.75 0 0 0 2.474 0l12-12a1.749 1.749 0 0 0 0-2.475l-4.463-4.476a3.888 3.888 0 0 0 -2.767-1.146 3.929 3.929 0 0 0 -1.241.2l-.778-.777a3.417 3.417 0 0 1 -.97-1.984 6.958 6.958 0 0 0 -1.969-4.019l-21.912-21.911a1.749 1.749 0 0 0 -2.475 0l-3.82 3.819a1.749 1.749 0 0 0 -.323 2.029l.1.2a10.328 10.328 0 0 1 -1.904 12.013 1.749 1.749 0 0 0 0 2.475l2.987 2.987-3.184 3.183a1.75 1.75 0 0 0 0 2.474l.261.261-25.958 24.732a8.606 8.606 0 0 0 5.934 14.835zm25.43-63.583 1.714-1.713 20.673 20.671a3.444 3.444 0 0 1 .972 1.984 6.922 6.922 0 0 0 1.969 4.02l1.724 1.725a1.749 1.749 0 0 0 2.475 0 .416.416 0 0 1 .588 0l3.234 3.234-9.53 9.53-3.234-3.234a.418.418 0 0 1 0-.588 1.748 1.748 0 0 0 0-2.474l-1.726-1.727a6.951 6.951 0 0 0 -4.02-1.968 3.415 3.415 0 0 1 -1.981-.97l-14.688-14.694a13.812 13.812 0 0 0 1.83-13.796zm9.146 29.727-1.945 1.946-9.155-9.155 1.945-1.946zm-38.096 21.554 26.02-24.79 5.988 5.988-24.788 26.02a5.069 5.069 0 0 1 -3.634 1.583 5.283 5.283 0 0 1 -3.672-1.5 5.105 5.105 0 0 1 .089-7.305z"/></g></svg>