<svg id="Capa_1" enable-background="new 0 0 512 512" height="512" viewBox="0 0 512 512" width="512" xmlns="http://www.w3.org/2000/svg"><g><path d="m376 60c-7.388 0-14.311 2.021-20.256 5.529-2.231-19.958-19.2-35.529-39.744-35.529-7.388 0-14.311 2.021-20.256 5.529-2.231-19.958-19.2-35.529-39.744-35.529s-37.513 15.571-39.744 35.529c-5.945-3.508-12.867-5.529-20.256-5.529-22.056 0-40 17.944-40 40v56.33s-19.945-.33-20.001-.33c-4.297 0-8.123 2.749-9.486 6.838l-30 90c-1.197 3.593-.262 7.555 2.416 10.233l87.071 87.072v45.857h-20c-5.522 0-10 4.478-10 10s4.478 10 10 10h20v43h-20c-5.522 0-10 4.478-10 10s4.478 10 10 10h20v53c0 5.522 4.478 10 10 10h45c5.522 0 10-4.478 10-10s-4.478-10-10-10h-35v-43h160v43h-35c-5.522 0-10 4.478-10 10s4.478 10 10 10h45c5.522 0 10-4.478 10-10v-53h20c5.522 0 10-4.478 10-10s-4.478-10-10-10h-20v-43h20c5.522 0 10-4.478 10-10s-4.478-10-10-10h-20v-45.967c19.378-20.853 30-47.842 30-76.463 0-15.162 0-128.797 0-143.57 0-22.056-17.944-40-40-40zm0 20c11.028 0 20 8.972 20 20v66c0 11.028-8.972 20-20 20s-20-8.972-20-20v-66c0-11.028 8.972-20 20-20zm-60-30c11.028 0 20 8.972 20 20v66c0 11.028-8.972 20-20 20s-20-8.972-20-20v-66c0-11.028 8.972-20 20-20zm-80-10c0-11.028 8.972-20 20-20s20 8.972 20 20v96c0 2.518.245 4.978.692 7.367-11.087-6.234-26.42-9.769-40.692-12.043 0-9.173 0-81.019 0-91.324zm-60 30c0-11.028 8.972-20 20-20s20 8.972 20 20v58.732c-7.18-.737-14.789-1.333-22.754-1.776-.293-.018-2.422-.046-17.246-.294zm190 359h-160v-43h160zm2.929-120.071c-1.875 1.876-2.929 4.419-2.929 7.071v50h-160v-50c0-2.652-1.054-5.195-2.929-7.071l-85.63-85.63 25.726-77.178 49.161.814c12.755.715 80.142 6.353 80.142 19.064 0 1.497-2.972 5.36-14.217 9.27-13.642 4.741-34.793 8.021-62.867 9.749-5.393.332-9.547 4.888-9.381 10.289.166 5.4 4.592 9.692 9.995 9.692 27.57 0 50 22.43 50 50 0 5.522 4.478 10 10 10s10-4.478 10-10c0-22.107-10.302-41.854-26.355-54.691 9.876-1.702 18.288-3.754 25.175-6.147 17.217-5.985 26.469-14.698 27.543-25.919 6.627 4.872 14.8 7.758 23.637 7.758 7.388 0 14.311-2.021 20.256-5.529 2.231 19.958 19.2 35.529 39.744 35.529 7.283 0 14.112-1.966 20-5.382v42.952c0 24.691-9.614 47.902-27.071 65.359z"/><circle cx="286" cy="502" r="10"/></g></svg>