<svg id="Outline" height="512" viewBox="0 0 512 512" width="512" xmlns="http://www.w3.org/2000/svg"><path d="m284 16c-68.047 0-129.8 41.15-157.351 104.833l-69.949 155.892a8 8 0 0 0 7.3 11.275h48v56a40.045 40.045 0 0 0 40 40h40v104a8 8 0 0 0 8 8h208a8 8 0 0 0 8-8v-183.169a178.415 178.415 0 0 0 40-112.831c0-97.047-77.159-176-172-176zm117.893 280.773a8 8 0 0 0 -1.893 5.167v178.06h-192v-104a8 8 0 0 0 -8-8h-48a24.028 24.028 0 0 1 -24-24v-64a8 8 0 0 0 -8-8h-43.642l64.911-144.665c.015-.034.03-.067.045-.1 25-57.854 81.007-95.235 142.686-95.235 86.019 0 156 71.776 156 160a162.3 162.3 0 0 1 -38.107 104.773z"/><path d="m378.717 184c3.552-3.878 6.855-7.765 9.857-11.64 18.3-23.609 23.984-44.68 16.017-59.331-4-7.345-11.223-12.6-20.9-15.186-13.069-3.5-30.777-2.221-50.815 3.147-9.359-30.967-24.485-52.99-44.876-52.99s-35.517 22.023-44.874 52.991c-20.04-5.369-37.748-6.643-50.815-3.148-9.679 2.59-16.907 7.841-20.9 15.187-7.967 14.65-2.278 35.721 16.017 59.33 3 3.875 6.305 7.762 9.857 11.64-3.552 3.878-6.855 7.765-9.857 11.64-18.295 23.609-23.984 44.68-16.017 59.331 4 7.345 11.223 12.6 20.9 15.186a64.627 64.627 0 0 0 16.62 1.957c10.117 0 21.7-1.762 34.193-5.108 9.358 30.969 24.485 52.994 44.876 52.994s35.518-22.024 44.876-52.994c12.488 3.346 24.075 5.108 34.193 5.108a64.666 64.666 0 0 0 16.62-1.957c9.679-2.59 16.907-7.841 20.9-15.187 7.967-14.65 2.278-35.721-16.017-59.33-3-3.875-6.303-7.762-9.855-11.64zm-11.757-71.852a49.067 49.067 0 0 1 12.521 1.418c5.338 1.429 8.975 3.864 10.811 7.239 4.556 8.377-.9 23.923-14.583 41.586-2.577 3.325-5.411 6.665-8.438 10a287.649 287.649 0 0 0 -24.854-20.918 290.68 290.68 0 0 0 -5.457-34.806c11.592-3.093 21.732-4.519 30-4.519zm-59.519 108.485q-9.952 6.1-19.44 11.034-9.477-4.954-19.442-11.034c-6.835-4.189-13.421-8.571-19.71-13.086-.549-7.571-.849-15.436-.849-23.547s.3-15.976.849-23.547c6.289-4.515 12.875-8.9 19.71-13.086q9.952-6.1 19.441-11.038 9.476 4.954 19.441 11.038c6.835 4.189 13.421 8.571 19.71 13.086.551 7.571.849 15.436.849 23.547s-.3 15.976-.849 23.547c-6.289 4.515-12.875 8.897-19.71 13.086zm17.4 8.221q-1.357 9.277-3.21 17.669-7.5-2.674-15.569-6.186 4.944-2.8 9.886-5.827 4.519-2.77 8.892-5.656zm-54.9 11.484q-8.055 3.516-15.569 6.186-1.839-8.376-3.211-17.67 4.385 2.874 8.893 5.656 4.937 3.027 9.886 5.828zm-37.766-45.674q-6.336-5.272-12.045-10.664 5.7-5.383 12.045-10.664-.175 5.339-.175 10.664t.174 10.664zm18.986-55.518q1.357-9.282 3.212-17.677 7.5 2.674 15.573 6.191-4.947 2.808-9.892 5.83-4.52 2.77-8.894 5.656zm54.9-11.486q8.053-3.516 15.573-6.191 1.839 8.379 3.212 17.677-4.385-2.874-8.893-5.656-4.947-3.028-9.898-5.83zm37.771 45.676q6.336 5.272 12.045 10.664-5.7 5.383-12.045 10.664.168-5.339.168-10.664t-.174-10.664zm-55.832-109.336c10.5 0 21.68 15.862 29.546 41.741a276.063 276.063 0 0 0 -29.546 12.403 275.845 275.845 0 0 0 -29.546-12.4c7.866-25.882 19.051-41.744 29.546-41.744zm-102.292 56.806c1.836-3.376 5.473-5.811 10.811-7.24a49.062 49.062 0 0 1 12.521-1.418c8.268 0 18.408 1.426 30 4.523a290.663 290.663 0 0 0 -5.457 34.8 287.649 287.649 0 0 0 -24.854 20.918c-3.027-3.338-5.861-6.678-8.438-10-13.691-17.661-19.139-33.207-14.583-41.583zm10.811 133.628c-5.338-1.429-8.975-3.864-10.811-7.239-4.556-8.377.9-23.923 14.583-41.586 2.577-3.325 5.411-6.665 8.438-10a287.649 287.649 0 0 0 24.854 20.918 290.546 290.546 0 0 0 5.456 34.8c-18.378 4.902-33.114 5.623-42.52 3.107zm91.481 49.566c-10.5 0-21.678-15.86-29.545-41.737a276.077 276.077 0 0 0 29.545-12.405 276.091 276.091 0 0 0 29.545 12.406c-7.867 25.876-19.045 41.736-29.545 41.736zm102.292-56.806c-1.836 3.376-5.473 5.811-10.811 7.24-9.406 2.515-24.141 1.793-42.519-3.114a290.514 290.514 0 0 0 5.455-34.8 287.649 287.649 0 0 0 24.854-20.918c3.027 3.338 5.861 6.678 8.438 10 13.691 17.67 19.139 33.216 14.583 41.592z"/><path d="m288 160a24 24 0 1 0 24 24 24.027 24.027 0 0 0 -24-24zm0 32a8 8 0 1 1 8-8 8.009 8.009 0 0 1 -8 8z"/></svg>